<?xml version="1.0" encoding="UTF-8"?><svg id="Calque_1" xmlns="http://www.w3.org/2000/svg" width="82.1296" height="43.748" viewBox="0 0 82.1296 43.748"><ellipse cx="19.8324" cy="23.6823" rx="19.8324" ry="20.0658" fill="#000" stroke-width="0"/><rect x="37.3317" y="19.2491" width="44.798" height="9.4496" rx="1.0532" ry="1.0532" fill="#000" stroke-width="0"/><ellipse cx="12.0745" cy="23.7989" rx="9.0413" ry="8.9829" fill="#fff" stroke-width="0"/><rect x="43.9814" y="8.283" width="14.5827" height="12.8328" rx="2.2591" ry="2.2591" fill="#000" stroke-width="0"/><rect x="62.6472" y="0" width="14.466" height="22.1657" rx="1.3999" ry="1.3999" fill="#000" stroke-width="0"/><path d="M50.2226,14.1744h2.1585c.2253,0,.4082.1829.4082.4082v4.6957h-2.9749v-4.6957c0-.2253.1829-.4082.4082-.4082Z" fill="#fff" stroke-width="0"/><rect x="65.3304" y="2.7415" width="2.6249" height="3.4998" rx=".3791" ry=".3791" fill="#fff" stroke-width="0"/><rect x="65.3887" y="9.9308" width="2.6249" height="3.4998" rx=".3791" ry=".3791" fill="#fff" stroke-width="0"/><rect x="71.8926" y="2.6759" width="2.6249" height="3.4998" rx=".3791" ry=".3791" fill="#fff" stroke-width="0"/><rect x="71.9509" y="9.8652" width="2.6249" height="3.4998" rx=".3791" ry=".3791" fill="#fff" stroke-width="0"/></svg>